<?xml version="1.0" encoding="utf-8"?>
<!-- Generator: Adobe Illustrator 21.1.0, SVG Export Plug-In . SVG Version: 6.00 Build 0)  -->
<svg version="1.1" id="Layer_1" xmlns="http://www.w3.org/2000/svg" xmlns:xlink="http://www.w3.org/1999/xlink" x="0px" y="0px"
	 viewBox="0 0 1024 1024" style="enable-background:new 0 0 1024 1024;" xml:space="preserve">
<style type="text/css">
	.st0{fill:#0AA650;}
</style>
<path class="st0" d="M755,128.6c-60.9-64.9-136.4-95.4-227.8-95.4c-92.7,0-168.2,30.5-229.1,92.7C237.2,186.9,208.1,265,208.1,359
	c0,92.7,30.5,170.8,91.4,233.1c47.7,49,104.6,78.1,169.5,88.7v55.6H335.2v59.6h135.1v31.8H335.2v55.6H469v107.3h115.2V883.5h135.1
	v-55.6H582.9v-31.8h136.4v-59.6H584.2v-54.3c66.2-10.6,123.2-39.7,170.8-88.7c59.6-62.2,90.1-140.4,90.1-233.1
	C845.1,269,814.6,190.8,755,128.6z M630.5,482.2c-25.2,31.8-60.9,47.7-103.3,47.7c-41.1,0-75.5-15.9-102-47.7
	c-26.5-31.8-39.7-72.8-39.7-124.5c0-50.3,13.2-90.1,39.7-121.8c26.5-31.8,60.9-47.7,102-47.7c39.7,0,74.2,15.9,100.7,49
	C655.7,269,669,310,669,359C669,409.4,655.7,450.4,630.5,482.2z"/>
</svg>
